{"title":"X-Men Apocalypse 2016 CAM XviD-VAiN","uid":14676282,"size":1494204745,"categoryP":"video","categoryS":"movies","magnet":"?xt=urn:btih:aa23891799bc220ad098abb39ef9ff02decb764b&amp;dn=X-Men+Apocalypse+2016+CAM+XviD-VAiN+++&amp;tr=udp%3A%2F%2Ftracker.leechers-paradise.org%3A6969&amp;tr=udp%3A%2F%2Fzer0day.ch%3A1337&amp;tr=udp%3A%2F%2Fopen.demonii.com%3A1337&amp;tr=udp%3A%2F%2Ftracker.coppersurfer.tk%3A6969&amp;tr=udp%3A%2F%2Fexodus.desync.com%3A6969","seeders":1,"leechers":3,"uploader":"makintos13","files":3,"time":1463950118,"description":"https://imgmak.com/TP8\r\n \nhttps://imgmak.com/TPL\r\n \nhttps://imgmak.com/TPX\r\n \nhttps://imgmak.com/TYC\r\n \nhttps://imgmak.com/TYK\r\n \nhttps://imgmak.com/TYT\r\n \nhttps://imgmak.com/TYa\r\n \nhttps://imgmak.com/TYp\r\n\r\nP R E S E N T S . . . . \r\n\r\nX-Men.Apocalypse.2016.CAM.XviD-VAiN\r\n\r\niMDB........: http://www.imdb.com/title/tt3385516/\r\n\r\n\r\n\r\nT E C H N i C A L . i N F O . . .\r\n\r\nBasic Information\r\nFormat                      : AVI\r\nFormat/Info                 : Audio Video Interleave\r\nFile size                   : 1.37 GiB\r\nDuration                    : 2h 11mn\r\nOverall bit rate            : 1 495 Kbps\r\nWriting application         : VirtualDubMod 1.5.10.2 (build 2540/release)\r\nWriting library             : VirtualDubMod build 2540/release\r\n\r\nVideo\r\nID                          : 0\r\nFormat                      : MPEG-4 Visual\r\nFormat profile              : Advanced   \r\nFormat settings, BVOP       : 2\r\nFormat settings, QPel       : No\r\nFormat settings, GMC        : No warppoints\r\nFormat settings, Matrix     : Default (H.263)\r\nMuxing mode                 : Packed bitstream\r\nCodec ID                    : XVID\r\nCodec ID/Hint               : XviD\r\nDuration                    : 2h 11mn\r\nBit rate                    : 1 358 Kbps\r\nWidth                       : 720 pixels\r\nHeight                      : 272 pixels\r\nDisplay aspect ratio        : 2.647\r\nFrame rate                  : 23.976 (24000/1001) fps\r\nColor space                 : YUV\r\nChroma subsampling          : 4:2:0\r\nBit depth                   : 8 bits\r\nScan type                   : Progressive\r\nCompression mode            : Lossy\r\nBits/(Pixel*Frame)          : 0.289\r\nStream size                 : 1.25 GiB (91%)\r\nWriting library             : XviD 64\r\n\r\nAudio\r\nID                          : 1\r\nFormat                      : MPEG Audio\r\nFormat version              : Version 1\r\nFormat profile              : Layer 3\r\nCodec ID                    : 55\r\nCodec ID/Hint               : MP3\r\nDuration                    : 2h 11mn\r\nBit rate mode               : Constant\r\nBit rate                    : 128 Kbps\r\nChannel(s)                  : 2 channels\r\nSampling rate               : 44.1 KHz\r\nCompression mode            : Lossy\r\nStream size                 : 120 MiB (9%)\r\nAlignment                   : Split accross interleaves\r\nInterleave, duration        : 42 ms (1.00 video frame)\r\nInterleave, preload duratio : 500 ms\r\n\r\n\r\n\r\n\r\nE N C O D E R S . N O T E S . . .     \r\n\r\n\r\nSOURCE......: 720p HDCAM x264 HQMic-Exclusive\r\n............: \r\nSAMPLE......: Yippers \r\nADDED NOTE..: rotated, cropped, chopped &amp; resized. tweaked vid &amp; audio to our liking. \r\nthen a quick spray of the Ol' P00-SHiNE and BOOM!!!!!","torrent":{"xt":"urn:btih:aa23891799bc220ad098abb39ef9ff02decb764b","amp;dn":"X-Men+Apocalypse+2016+CAM+XviD-VAiN+++","amp;tr":["udp%3A%2F%2Ftracker.leechers-paradise.org%3A6969","udp%3A%2F%2Fzer0day.ch%3A1337","udp%3A%2F%2Fopen.demonii.com%3A1337","udp%3A%2F%2Ftracker.coppersurfer.tk%3A6969","udp%3A%2F%2Fexodus.desync.com%3A6969"],"infoHash":"aa23891799bc220ad098abb39ef9ff02decb764b","infoHashBuffer":{"type":"Buffer","data":[170,35,137,23,153,188,34,10,208,152,171,179,158,249,255,2,222,203,118,75]},"announce":[],"urlList":[]}}